<svg width="34" height="32" viewBox="0 0 34 32" fill="none" xmlns="http://www.w3.org/2000/svg">
<path d="M15.9375 25L11.5625 25C10.4579 25 9.56247 24.1046 9.56247 23L9.56247 9C9.56247 7.89543 10.4579 7 11.5625 7L17.6235 7C18.133 7 18.6232 7.19443 18.9942 7.5436L23.8082 12.0744C24.2098 12.4524 24.4375 12.9794 24.4375 13.5308L24.4375 15" stroke="white" stroke-width="2" stroke-linecap="round" stroke-linejoin="round"/>
<path d="M26.5625 23.3335C27.1148 23.3335 27.5625 22.8858 27.5625 22.3335C27.5625 21.7812 27.1148 21.3335 26.5625 21.3335V23.3335ZM20.8958 21.3335C20.3435 21.3335 19.8958 21.7812 19.8958 22.3335C19.8958 22.8858 20.3435 23.3335 20.8958 23.3335V21.3335ZM26.5625 21.3335H20.8958V23.3335H26.5625V21.3335Z" fill="white"/>
<path d="M22.7292 24.9998C22.7292 25.5521 23.1769 25.9998 23.7292 25.9998C24.2815 25.9998 24.7292 25.5521 24.7292 24.9998H22.7292ZM24.7292 19.6665C24.7292 19.1142 24.2815 18.6665 23.7292 18.6665C23.1769 18.6665 22.7292 19.1142 22.7292 19.6665H24.7292ZM24.7292 24.9998V19.6665H22.7292V24.9998H24.7292Z" fill="white"/>
</svg>
