<svg width="40" height="38" viewBox="0 0 40 38" fill="none" xmlns="http://www.w3.org/2000/svg">
<path d="M0 19C0 8.50659 8.50659 0 19 0H21C31.4934 0 40 8.50659 40 19C40 29.4934 31.4934 38 21 38H19C8.50659 38 0 29.4934 0 19Z" fill="#6336FF"/>
<path d="M18.9375 27L14.5625 27C13.4579 27 12.5625 26.1046 12.5625 25L12.5625 11C12.5625 9.89543 13.4579 9 14.5625 9L20.6235 9C21.133 9 21.6232 9.19443 21.9942 9.5436L26.8082 14.0744C27.2098 14.4524 27.4375 14.9794 27.4375 15.5308L27.4375 17" stroke="white" stroke-width="2" stroke-linecap="round" stroke-linejoin="round"/>
<path d="M29.5625 25.3335C30.1148 25.3335 30.5625 24.8858 30.5625 24.3335C30.5625 23.7812 30.1148 23.3335 29.5625 23.3335V25.3335ZM23.8958 23.3335C23.3435 23.3335 22.8958 23.7812 22.8958 24.3335C22.8958 24.8858 23.3435 25.3335 23.8958 25.3335V23.3335ZM29.5625 23.3335H23.8958V25.3335H29.5625V23.3335Z" fill="white"/>
<path d="M25.7292 26.9998C25.7292 27.5521 26.1769 27.9998 26.7292 27.9998C27.2815 27.9998 27.7292 27.5521 27.7292 26.9998H25.7292ZM27.7292 21.6665C27.7292 21.1142 27.2815 20.6665 26.7292 20.6665C26.1769 20.6665 25.7292 21.1142 25.7292 21.6665H27.7292ZM27.7292 26.9998V21.6665H25.7292V26.9998H27.7292Z" fill="white"/>
</svg>
