<svg width="33" height="32" viewBox="0 0 33 32" fill="none" xmlns="http://www.w3.org/2000/svg">
<path d="M7.50781 23.1297V14.2476C7.50781 13.6705 7.77424 13.1258 8.22974 12.7715L15.3597 7.22595C16.035 6.70074 16.9806 6.70073 17.6559 7.22595L24.7859 12.7715C25.2414 13.1258 25.5078 13.6705 25.5078 14.2476V23.1297C25.5078 24.1624 24.6706 24.9997 23.6378 24.9997H20.0078C19.7317 24.9997 19.5078 24.7758 19.5078 24.4997V20.8646C19.5078 20.5136 19.4504 20.1587 19.2647 19.861C19.0217 19.4715 18.6975 19.1361 18.3118 18.879C17.7779 18.523 17.15 18.333 16.5078 18.333C15.8656 18.333 15.2378 18.523 14.7038 18.879C14.3181 19.1361 13.9939 19.4715 13.7509 19.861C13.5652 20.1587 13.5078 20.5136 13.5078 20.8646V24.4997C13.5078 24.7758 13.284 24.9997 13.0078 24.9997H9.37781C8.34504 24.9997 7.50781 24.1624 7.50781 23.1297Z" stroke="black" stroke-width="1.5" stroke-linecap="round" stroke-linejoin="round"/>
</svg>
