<svg width="100" height="100" viewBox="0 0 100 100" fill="none" xmlns="http://www.w3.org/2000/svg">
<path d="M13.2208 28.5338H22.8982C22.8982 28.5338 22.9511 34.0717 23.004 35.1266H13.2208C9.57196 35.1266 6.61058 38.0802 6.61058 41.7194V58.2278C6.61058 61.8671 9.57196 64.8207 13.2208 64.8207H31.7295C35.5899 64.8207 38.4455 64.4515 40.5608 63.7131C43.575 62.711 45.1086 60.9705 45.8489 58.6498C47.3296 58.7025 48.7575 58.7025 49.9209 58.7025C50.8198 58.7025 51.7188 58.7025 52.6178 58.7025C51.5602 63.8186 48.5988 68.5127 40.5079 70.4641C38.8685 70.8333 37.0177 71.097 35.0082 71.2553V86.5506C35.0082 90.1899 37.9695 93.1435 41.6184 93.1435H58.2762C61.925 93.1435 64.8864 90.1899 64.8864 86.5506V68.0907C64.8864 53.2173 59.2809 53.2173 49.9737 53.2173C40.878 53.2173 28.3979 53.2173 28.3979 31.6983V13.2384C28.3979 5.95991 34.3736 0 41.6713 0L58.2762 0.158228C65.5739 0.158228 71.5495 6.11814 71.5495 13.3966V28.5338H86.7266C94.0772 28.5338 100 34.4937 100 41.7722V58.2806C100 65.5591 94.0772 71.519 86.7266 71.519H77.0493V68.1962C77.0493 67.0359 76.9964 65.9283 76.9435 64.8734H86.7266C90.3755 64.8734 93.3369 61.9198 93.3369 58.2806V41.7722C93.3369 38.1329 90.3755 35.1793 86.7266 35.1793H68.218C64.3576 35.1793 61.502 35.5485 59.3867 36.2869C56.3724 37.289 54.8389 39.0295 54.0985 41.3502C52.6178 41.2975 51.19 41.2975 50.0266 41.2975C49.1276 41.2975 48.2286 41.2975 47.3296 41.2975C48.3873 36.1814 51.3487 31.4873 59.4396 29.5359C61.0789 29.1667 62.9298 28.903 64.9393 28.7447V13.4494C64.9393 9.81013 61.9779 6.85654 58.3291 6.85654H41.7242C38.0753 6.85654 35.1139 9.81013 35.1139 13.4494V31.9093C35.1139 46.7827 40.7194 46.7827 50.0266 46.7827C59.1223 46.7827 71.6024 46.7827 71.6024 68.3017V86.7616C71.6024 94.0401 65.6268 100 58.3291 100H41.7242C34.4265 100 28.4508 94.0401 28.4508 86.7616V71.6245H13.2737C5.976 71.6245 0.000343323 65.6646 0.000343323 58.3861V41.7722C-0.0525436 34.4937 5.92311 28.5338 13.2208 28.5338Z" fill="#6336FF" fill-opacity="0.89"/>
</svg>
