<svg width="127" height="32" viewBox="0 0 127 32" fill="none" xmlns="http://www.w3.org/2000/svg">
<path d="M4.23066 9.1308H7.32743C7.32743 9.1308 7.34435 10.903 7.36127 11.2405H4.23066C3.06303 11.2405 2.11539 12.1857 2.11539 13.3502V18.6329C2.11539 19.7975 3.06303 20.7426 4.23066 20.7426H10.1534C11.3888 20.7426 12.3026 20.6245 12.9794 20.3882C13.944 20.0675 14.4348 19.5105 14.6717 18.7679C15.1455 18.7848 15.6024 18.7848 15.9747 18.7848C16.2624 18.7848 16.55 18.7848 16.8377 18.7848C16.4993 20.4219 15.5516 21.9241 12.9625 22.5485C12.4379 22.6667 11.8457 22.7511 11.2026 22.8017V27.6962C11.2026 28.8608 12.1503 29.8059 13.3179 29.8059H18.6484C19.816 29.8059 20.7637 28.8608 20.7637 27.6962V21.789C20.7637 17.0295 18.9699 17.0295 15.9916 17.0295C13.081 17.0295 9.08734 17.0295 9.08734 10.1435V4.23629C9.08734 1.90717 10.9995 0 13.3348 0L18.6484 0.0506329C20.9836 0.0506329 22.8959 1.95781 22.8959 4.28692V9.1308H27.7525C30.1047 9.1308 32 11.038 32 13.3671V18.6498C32 20.9789 30.1047 22.8861 27.7525 22.8861H24.6558V21.8228C24.6558 21.4515 24.6388 21.097 24.6219 20.7595H27.7525C28.9202 20.7595 29.8678 19.8143 29.8678 18.6498V13.3671C29.8678 12.2025 28.9202 11.2574 27.7525 11.2574H21.8298C20.5944 11.2574 19.6806 11.3755 19.0037 11.6118C18.0392 11.9325 17.5484 12.4895 17.3115 13.2321C16.8377 13.2152 16.3808 13.2152 16.0085 13.2152C15.7208 13.2152 15.4332 13.2152 15.1455 13.2152C15.4839 11.5781 16.4316 10.0759 19.0207 9.45148C19.5453 9.33333 20.1375 9.24894 20.7806 9.19831V4.3038C20.7806 3.13924 19.8329 2.19409 18.6653 2.19409H13.3517C12.1841 2.19409 11.2365 3.13924 11.2365 4.3038V10.211C11.2365 14.9705 13.0302 14.9705 16.0085 14.9705C18.9191 14.9705 22.9128 14.9705 22.9128 21.8565V27.7637C22.9128 30.0928 21.0006 32 18.6653 32H13.3517C11.0165 32 9.10426 30.0928 9.10426 27.7637V22.9198H4.24759C1.91232 22.9198 0.000110626 21.0127 0.000110626 18.6835V13.3671C-0.0168114 11.038 1.8954 9.1308 4.23066 9.1308Z" fill="white"/>
<path d="M49.6 25L44.896 10.96H44.8C44.816 11.28 44.84 11.736 44.872 12.328C44.904 12.904 44.928 13.536 44.944 14.224C44.976 14.896 44.992 15.528 44.992 16.12V25H42.232V7.864H46.504L51.016 21.328H51.112L55.816 7.864H60.088V25H57.16V15.976C57.16 15.432 57.168 14.84 57.184 14.2C57.216 13.544 57.24 12.928 57.256 12.352C57.288 11.76 57.312 11.304 57.328 10.984H57.232L52.336 25H49.6ZM68.9651 11.752C70.1331 11.752 71.1331 11.992 71.9651 12.472C72.8131 12.936 73.4691 13.608 73.9331 14.488C74.3971 15.352 74.6291 16.408 74.6291 17.656V19.192H66.0371C66.0691 20.376 66.3971 21.296 67.0211 21.952C67.6451 22.592 68.5091 22.912 69.6131 22.912C70.4611 22.912 71.2131 22.832 71.8691 22.672C72.5411 22.496 73.2291 22.248 73.9331 21.928V24.352C73.2931 24.656 72.6291 24.88 71.9411 25.024C71.2531 25.168 70.4291 25.24 69.4691 25.24C68.2051 25.24 67.0771 25 66.0851 24.52C65.1091 24.024 64.3411 23.28 63.7811 22.288C63.2371 21.296 62.9651 20.064 62.9651 18.592C62.9651 17.104 63.2131 15.856 63.7091 14.848C64.2211 13.824 64.9251 13.056 65.8211 12.544C66.7171 12.016 67.7651 11.752 68.9651 11.752ZM68.9651 13.984C68.1651 13.984 67.5091 14.248 66.9971 14.776C66.5011 15.288 66.2051 16.056 66.1091 17.08H71.7011C71.7011 16.472 71.5971 15.936 71.3891 15.472C71.1971 15.008 70.9011 14.648 70.5011 14.392C70.1011 14.12 69.5891 13.984 68.9651 13.984ZM81.4744 25.24C79.9704 25.24 78.7464 24.68 77.8024 23.56C76.8744 22.424 76.4104 20.744 76.4104 18.52C76.4104 16.296 76.8824 14.616 77.8264 13.48C78.7704 12.328 80.0104 11.752 81.5464 11.752C82.1864 11.752 82.7464 11.84 83.2264 12.016C83.7224 12.176 84.1464 12.4 84.4984 12.688C84.8504 12.976 85.1464 13.296 85.3864 13.648H85.5304C85.4824 13.424 85.4344 13.08 85.3864 12.616C85.3384 12.152 85.3144 11.72 85.3144 11.32V6.76H88.3384V25H85.9864L85.4344 23.296H85.3144C85.0744 23.648 84.7784 23.976 84.4264 24.28C84.0744 24.568 83.6584 24.8 83.1784 24.976C82.6984 25.152 82.1304 25.24 81.4744 25.24ZM82.3864 22.792C83.5064 22.792 84.2984 22.472 84.7624 21.832C85.2264 21.192 85.4584 20.224 85.4584 18.928V18.544C85.4584 17.136 85.2344 16.064 84.7864 15.328C84.3544 14.592 83.5384 14.224 82.3384 14.224C81.4264 14.224 80.7224 14.608 80.2264 15.376C79.7304 16.128 79.4824 17.192 79.4824 18.568C79.4824 19.944 79.7304 20.992 80.2264 21.712C80.7224 22.432 81.4424 22.792 82.3864 22.792ZM106.606 11.752C108.078 11.752 109.182 12.128 109.918 12.88C110.67 13.632 111.046 14.848 111.046 16.528V25H108.022V17.104C108.022 16.144 107.846 15.424 107.494 14.944C107.142 14.448 106.582 14.2 105.814 14.2C104.758 14.2 104.006 14.544 103.558 15.232C103.11 15.92 102.886 16.92 102.886 18.232V25H99.8618V17.104C99.8618 16.464 99.7818 15.928 99.6218 15.496C99.4618 15.064 99.2138 14.744 98.8778 14.536C98.5578 14.312 98.1418 14.2 97.6298 14.2C96.9098 14.2 96.3338 14.376 95.9018 14.728C95.4698 15.064 95.1658 15.56 94.9898 16.216C94.8138 16.872 94.7258 17.68 94.7258 18.64V25H91.7018V11.992H94.0298L94.4618 13.696H94.6298C94.9018 13.248 95.2298 12.88 95.6138 12.592C96.0138 12.304 96.4538 12.096 96.9338 11.968C97.4298 11.824 97.9258 11.752 98.4218 11.752C99.3978 11.752 100.222 11.92 100.894 12.256C101.566 12.576 102.07 13.08 102.406 13.768H102.646C103.046 13.064 103.606 12.552 104.326 12.232C105.062 11.912 105.822 11.752 106.606 11.752ZM119.567 11.752C120.735 11.752 121.735 11.992 122.567 12.472C123.415 12.936 124.071 13.608 124.535 14.488C124.999 15.352 125.231 16.408 125.231 17.656V19.192H116.639C116.671 20.376 116.999 21.296 117.623 21.952C118.247 22.592 119.111 22.912 120.215 22.912C121.063 22.912 121.815 22.832 122.471 22.672C123.143 22.496 123.831 22.248 124.535 21.928V24.352C123.895 24.656 123.231 24.88 122.543 25.024C121.855 25.168 121.031 25.24 120.071 25.24C118.807 25.24 117.679 25 116.687 24.52C115.711 24.024 114.943 23.28 114.383 22.288C113.839 21.296 113.567 20.064 113.567 18.592C113.567 17.104 113.815 15.856 114.311 14.848C114.823 13.824 115.527 13.056 116.423 12.544C117.319 12.016 118.367 11.752 119.567 11.752ZM119.567 13.984C118.767 13.984 118.111 14.248 117.599 14.776C117.103 15.288 116.807 16.056 116.711 17.08H122.303C122.303 16.472 122.199 15.936 121.991 15.472C121.799 15.008 121.503 14.648 121.103 14.392C120.703 14.12 120.191 13.984 119.567 13.984Z" fill="white"/>
</svg>
