<svg width="27" height="24" viewBox="0 0 27 24" fill="none" xmlns="http://www.w3.org/2000/svg">
<path d="M3.94522 6.8481H6.46135C6.46135 6.8481 6.47509 8.17722 6.48884 8.43038H3.94522C2.99652 8.43038 2.22656 9.13924 2.22656 10.0127V13.9747C2.22656 14.8481 2.99652 15.557 3.94522 15.557H8.75748C9.76118 15.557 10.5036 15.4684 11.0536 15.2911C11.8373 15.0506 12.236 14.6329 12.4285 14.0759C12.8135 14.0886 13.1847 14.0886 13.4872 14.0886C13.721 14.0886 13.9547 14.0886 14.1884 14.0886C13.9135 15.3165 13.1435 16.443 11.0399 16.9114C10.6136 17 10.1324 17.0633 9.60993 17.1013V20.7722C9.60993 21.6456 10.3799 22.3544 11.3286 22.3544H15.6596C16.6083 22.3544 17.3783 21.6456 17.3783 20.7722V16.3418C17.3783 12.7722 15.9209 12.7722 13.501 12.7722C11.1361 12.7722 7.89127 12.7722 7.89127 7.60759V3.17722C7.89127 1.43038 9.44494 0 11.3423 0L15.6596 0.0379747C17.557 0.0379747 19.1107 1.46835 19.1107 3.21519V6.8481H23.0567C24.9679 6.8481 26.5078 8.27848 26.5078 10.0253V13.9873C26.5078 15.7342 24.9679 17.1646 23.0567 17.1646H20.5406V16.3671C20.5406 16.0886 20.5269 15.8228 20.5131 15.5696H23.0567C24.0054 15.5696 24.7754 14.8608 24.7754 13.9873V10.0253C24.7754 9.1519 24.0054 8.44304 23.0567 8.44304H18.2445C17.2408 8.44304 16.4983 8.53165 15.9484 8.70886C15.1646 8.94937 14.7659 9.36709 14.5734 9.92405C14.1884 9.91139 13.8172 9.91139 13.5147 9.91139C13.281 9.91139 13.0473 9.91139 12.8135 9.91139C13.0885 8.68355 13.8585 7.55696 15.9621 7.08861C16.3883 7 16.8696 6.93671 17.392 6.89873V3.22785C17.392 2.35443 16.6221 1.64557 15.6734 1.64557H11.3561C10.4074 1.64557 9.63743 2.35443 9.63743 3.22785V7.65823C9.63743 11.2278 11.0949 11.2278 13.5147 11.2278C15.8796 11.2278 19.1244 11.2278 19.1244 16.3924V20.8228C19.1244 22.5696 17.5708 24 15.6734 24H11.3561C9.45869 24 7.90502 22.5696 7.90502 20.8228V17.1899H3.95897C2.06157 17.1899 0.507902 15.7595 0.507902 14.0127V10.0253C0.494154 8.27848 2.04782 6.8481 3.94522 6.8481Z" fill="black"/>
</svg>
