<svg width="55" height="53" viewBox="0 0 55 53" fill="none" xmlns="http://www.w3.org/2000/svg">
<path d="M7.27145 15.1229H12.594C12.594 15.1229 12.6231 18.058 12.6522 18.6171H7.27145C5.26458 18.6171 3.63582 20.1825 3.63582 22.1113V30.8608C3.63582 32.7896 5.26458 34.355 7.27145 34.355H17.4512C19.5744 34.355 21.145 34.1593 22.3084 33.7679C23.9663 33.2368 24.8097 32.3143 25.2169 31.0844C26.0313 31.1123 26.8166 31.1123 27.4565 31.1123C27.9509 31.1123 28.4454 31.1123 28.9398 31.1123C28.3581 33.8238 26.7293 36.3117 22.2793 37.346C21.3777 37.5417 20.3597 37.6814 19.2545 37.7653V45.8718C19.2545 47.8006 20.8833 49.366 22.8901 49.366H32.0519C34.0588 49.366 35.6875 47.8006 35.6875 45.8718V36.0881C35.6875 28.2052 32.6045 28.2052 27.4856 28.2052C22.4829 28.2052 15.6189 28.2052 15.6189 16.8001V7.01635C15.6189 3.15875 18.9055 0 22.9192 0L32.0519 0.0838608C36.0656 0.0838608 39.3523 3.24262 39.3523 7.10021V15.1229H47.6997C51.7425 15.1229 55 18.2816 55 22.1392V30.8887C55 34.7463 51.7425 37.9051 47.6997 37.9051H42.3771V36.144C42.3771 35.529 42.348 34.942 42.3189 34.3829H47.6997C49.7065 34.3829 51.3353 32.8175 51.3353 30.8887V22.1392C51.3353 20.2104 49.7065 18.645 47.6997 18.645H37.5199C35.3967 18.645 33.8261 18.8407 32.6627 19.2321C31.0048 19.7632 30.1614 20.6857 29.7542 21.9156C28.9398 21.8877 28.1545 21.8877 27.5146 21.8877C27.0202 21.8877 26.5257 21.8877 26.0313 21.8877C26.613 19.1762 28.2418 16.6883 32.6918 15.654C33.5934 15.4583 34.6114 15.3186 35.7166 15.2347V7.12816C35.7166 5.19937 34.0879 3.63397 32.081 3.63397H22.9483C20.9414 3.63397 19.3127 5.19937 19.3127 7.12816V16.9119C19.3127 24.7948 22.3957 24.7948 27.5146 24.7948C32.5173 24.7948 39.3813 24.7948 39.3813 36.1999V45.9837C39.3813 49.8412 36.0947 53 32.081 53H22.9483C18.9346 53 15.6479 49.8412 15.6479 45.9837V37.961H7.30054C3.2868 37.961 0.00019455 34.8022 0.00019455 30.9446V22.1392C-0.0288925 18.2816 3.25772 15.1229 7.27145 15.1229Z" fill="#6336FF" fill-opacity="0.89"/>
</svg>
