<svg width="32" height="32" viewBox="0 0 32 32" fill="none" xmlns="http://www.w3.org/2000/svg">
<path d="M15.9898 11.6963C15.9928 11.687 16.0059 11.687 16.0089 11.6963L17.6435 16.7273C17.6449 16.7314 17.6487 16.7342 17.6531 16.7342H22.943C22.9527 16.7342 22.9567 16.7466 22.9489 16.7523L18.6692 19.8616C18.6657 19.8642 18.6642 19.8687 18.6656 19.8728L20.3003 24.9038C20.3033 24.9131 20.2927 24.9207 20.2849 24.915L16.0052 21.8057C16.0017 21.8031 15.997 21.8031 15.9935 21.8057L11.7138 24.915C11.706 24.9207 11.6954 24.9131 11.6984 24.9038L13.3331 19.8728C13.3345 19.8687 13.333 19.8642 13.3295 19.8616L9.04983 16.7523C9.042 16.7466 9.04602 16.7342 9.05571 16.7342H14.3456C14.35 16.7342 14.3538 16.7314 14.3552 16.7273L15.9898 11.6963Z" stroke="black" stroke-width="1.5"/>
<path d="M9 7L9 12.6667" stroke="black" stroke-width="1.5" stroke-linecap="round" stroke-linejoin="round"/>
<path d="M23 7L23 12.6667" stroke="black" stroke-width="1.5" stroke-linecap="round" stroke-linejoin="round"/>
<path d="M16 7L16 7.66667" stroke="black" stroke-width="1.5" stroke-linecap="round" stroke-linejoin="round"/>
</svg>
