<svg width="1676" height="984" viewBox="0 0 1676 984" fill="none" xmlns="http://www.w3.org/2000/svg">
<rect width="421" height="984" fill="#EDEEF2" fill-opacity="0.5"/>
<g clip-path="url(#clip0_16_3649)">
<path d="M1679.01 0H421V984H1679.01V0Z" fill="#6336FF" fill-opacity="0.7"/>
<path d="M1679.01 798C1584.19 793.081 1489.24 787.998 1418.09 737.334C1347.09 686.67 1299.75 590.425 1240.37 513.527C1180.99 436.793 1109.56 379.243 1066.98 296.77C1024.55 214.461 1010.96 107.231 997.379 0H1679.01V798Z" fill="#2F1B73"/>
<path d="M421 185.812C515.962 189.584 611.063 193.52 680.785 246.492C750.507 299.464 794.99 401.308 848.955 480.684C902.92 560.06 966.367 617.132 1009.73 697.164C1053.1 777.36 1076.39 880.68 1099.68 984H421V185.812Z" fill="#160042"/>
</g>
<defs>
<clipPath id="clip0_16_3649">
<rect width="1255" height="984" fill="white" transform="translate(421)"/>
</clipPath>
</defs>
</svg>
