<svg width="18" height="18" viewBox="0 0 18 18" fill="none" xmlns="http://www.w3.org/2000/svg">
<path d="M16.1422 17.3034L10.5422 11.7034C10.0422 12.1034 9.46719 12.4201 8.81719 12.6534C8.16719 12.8868 7.47552 13.0034 6.74219 13.0034C4.92552 13.0034 3.38819 12.3744 2.13019 11.1164C0.871521 9.85775 0.242188 8.32008 0.242188 6.50342C0.242188 4.68675 0.871521 3.14908 2.13019 1.89042C3.38819 0.632418 4.92552 0.00341797 6.74219 0.00341797C8.55885 0.00341797 10.0965 0.632418 11.3552 1.89042C12.6132 3.14908 13.2422 4.68675 13.2422 6.50342C13.2422 7.23675 13.1255 7.92842 12.8922 8.57842C12.6589 9.22842 12.3422 9.80342 11.9422 10.3034L17.5672 15.9284C17.7505 16.1118 17.8422 16.3368 17.8422 16.6034C17.8422 16.8701 17.7422 17.1034 17.5422 17.3034C17.3589 17.4868 17.1255 17.5784 16.8422 17.5784C16.5589 17.5784 16.3255 17.4868 16.1422 17.3034ZM6.74219 11.0034C7.99219 11.0034 9.05485 10.5661 9.93019 9.69142C10.8049 8.81608 11.2422 7.75342 11.2422 6.50342C11.2422 5.25342 10.8049 4.19075 9.93019 3.31542C9.05485 2.44075 7.99219 2.00342 6.74219 2.00342C5.49219 2.00342 4.42952 2.44075 3.55419 3.31542C2.67952 4.19075 2.24219 5.25342 2.24219 6.50342C2.24219 7.75342 2.67952 8.81608 3.55419 9.69142C4.42952 10.5661 5.49219 11.0034 6.74219 11.0034Z" fill="white"/>
</svg>
