<svg width="33" height="32" viewBox="0 0 33 32" fill="none" xmlns="http://www.w3.org/2000/svg">
<path d="M15.7362 7.24732C15.8414 6.91756 16.3031 6.91756 16.4084 7.24732L18.2807 13.1137C18.3279 13.2613 18.464 13.3613 18.6176 13.361L24.7176 13.3475C25.0606 13.3467 25.2032 13.7905 24.9254 13.9935L19.9825 17.6056C19.8581 17.6966 19.806 17.8583 19.8538 18.0058L21.7515 23.8638C21.8582 24.1931 21.4847 24.4674 21.2077 24.2631L16.2805 20.6292C16.1564 20.5377 15.9881 20.5377 15.8641 20.6292L10.9369 24.2631C10.6599 24.4674 10.2863 24.1931 10.393 23.8638L12.2907 18.0058C12.3385 17.8583 12.2865 17.6966 12.162 17.6056L7.21915 13.9935C6.9413 13.7905 7.08398 13.3467 7.42688 13.3475L13.5269 13.361C13.6805 13.3613 13.8167 13.2613 13.8638 13.1137L15.7362 7.24732Z" stroke="white" stroke-width="1.5"/>
</svg>
