<svg width="32" height="32" viewBox="0 0 32 32" fill="none" xmlns="http://www.w3.org/2000/svg">
<circle cx="16" cy="16" r="16" fill="#F5F8FF"/>
<path d="M15.9998 16.0001C17.4732 16.0001 18.6665 14.8067 18.6665 13.3334C18.6665 11.8601 17.4732 10.6667 15.9998 10.6667C14.5265 10.6667 13.3332 11.8601 13.3332 13.3334C13.3332 14.8067 14.5265 16.0001 15.9998 16.0001ZM15.9998 17.3334C14.2198 17.3334 10.6665 18.2267 10.6665 20.0001V20.6667C10.6665 21.0334 10.9665 21.3334 11.3332 21.3334H20.6665C21.0332 21.3334 21.3332 21.0334 21.3332 20.6667V20.0001C21.3332 18.2267 17.7798 17.3334 15.9998 17.3334Z" fill="#2960EC"/>
</svg>
