<svg id="visual" viewBox="0 0 900 600" width="900" height="600" xmlns="http://www.w3.org/2000/svg" xmlns:xlink="http://www.w3.org/1999/xlink" version="1.1"><rect x="0" y="0" width="900" height="600" fill="#050012"></rect><path d="M0 474L21.5 466.7C43 459.3 86 444.7 128.8 449.2C171.7 453.7 214.3 477.3 257.2 469.8C300 462.3 343 423.7 385.8 419.2C428.7 414.7 471.3 444.3 514.2 453.2C557 462 600 450 642.8 456.7C685.7 463.3 728.3 488.7 771.2 479.7C814 470.7 857 427.3 878.5 405.7L900 384L900 601L878.5 601C857 601 814 601 771.2 601C728.3 601 685.7 601 642.8 601C600 601 557 601 514.2 601C471.3 601 428.7 601 385.8 601C343 601 300 601 257.2 601C214.3 601 171.7 601 128.8 601C86 601 43 601 21.5 601L0 601Z" fill="#9679ff" stroke-linecap="round" stroke-linejoin="miter"></path></svg>