<svg width="578" height="600" viewBox="0 0 578 600" fill="none" xmlns="http://www.w3.org/2000/svg">
<path d="M76.3843 171.203H132.296C132.296 171.203 132.602 204.43 132.907 210.759H76.3843C55.3028 210.759 38.1932 228.481 38.1932 250.316V349.367C38.1932 371.203 55.3028 388.924 76.3843 388.924H183.32C205.623 388.924 222.122 386.709 234.343 382.278C251.758 376.266 260.618 365.823 264.896 351.899C273.451 352.215 281.7 352.215 288.422 352.215C293.616 352.215 298.81 352.215 304.004 352.215C297.893 382.911 280.783 411.076 234.037 422.785C224.566 425 213.872 426.582 202.262 427.532V519.304C202.262 541.139 219.372 558.861 240.454 558.861H336.695C357.777 558.861 374.886 541.139 374.886 519.304V408.544C374.886 319.304 342.5 319.304 288.727 319.304C236.176 319.304 164.071 319.304 164.071 190.19V79.4304C164.071 35.7595 198.596 0 240.759 0L336.695 0.949367C378.858 0.949367 413.383 36.7089 413.383 80.3797V171.203H501.07C543.539 171.203 577.758 206.962 577.758 250.633V349.684C577.758 393.354 543.539 429.114 501.07 429.114H445.158V409.177C445.158 402.215 444.853 395.57 444.547 389.24H501.07C522.151 389.24 539.261 371.519 539.261 349.684V250.633C539.261 228.797 522.151 211.076 501.07 211.076H394.135C371.831 211.076 355.333 213.291 343.111 217.722C325.696 223.734 316.836 234.177 312.558 248.101C304.004 247.785 295.754 247.785 289.033 247.785C283.839 247.785 278.645 247.785 273.451 247.785C279.561 217.089 296.671 188.924 343.417 177.215C352.888 175 363.582 173.418 375.192 172.468V80.6962C375.192 58.8608 358.082 41.1392 337.001 41.1392H241.065C219.983 41.1392 202.873 58.8608 202.873 80.6962V191.456C202.873 280.696 235.26 280.696 289.033 280.696C341.584 280.696 413.689 280.696 413.689 409.81V520.57C413.689 564.24 379.164 600 337.001 600H241.065C198.902 600 164.377 564.24 164.377 520.57V429.747H76.6898C34.5269 429.747 0.00201416 393.987 0.00201416 350.316V250.633C-0.303528 206.962 34.2213 171.203 76.3843 171.203Z" fill="white"/>
</svg>
